<?xml version="1.0" encoding="UTF-8"?>
<svg version="1.1" viewBox="0 0 2048 938" width="1202" height="551" xmlns="http://www.w3.org/2000/svg">
<path transform="translate(825,156)" d="m0 0h275v399h-275zm131 88-70 1v43l4 1h57v177h30v-177h61v-44l-12-1z"/>
<path transform="translate(1741,156)" d="m0 0h275v399h-275zm195 88-11 1v88h-92v-88h-30v221h30v-89l2 1h90v88h30v-221l-4-1z"/>
<path transform="translate(1436,156)" d="m0 0h275l1 398-1 1h-275zm122 88-60 1v221h152v-44h-122v-133h121l1-1v-43l-13-1z"/>
<path transform="translate(1130,156)" d="m0 0h275v398l-1 1h-274zm120 88-59 1v221h152v-44h-122l1-44h90l1-1v-44h-92l1-44h121v-44l-12-1z"/>
<path transform="translate(528,142)" d="m0 0h44l25 3 25 6 30 10 21 10 17 10 9 6 8 4 13 12 8 7 9 10 10 13 11 18 8 17 6 18 4 19 1 8v28l-3 20-5 19-9 21-10 18-11 17-13 22-6 10-6 12-10 19-11 24-9 23-9 28-3 15-4 37-3 14-5 9-7 8-10 5-7 2-44 1h-90l-37-1-10-3-9-6-7-9-5-11 1-6-4-36-3-17h-2l-7-25-11-28-13-27-8-16-10-19-15-25-14-23-8-14-7-16-4-13-1-12-2-13-1-22 2-19 6-25 6-15 8-16 9-14 10-13 12-13 14-13 18-13 15-9 17-9 21-8 23-7 18-4zm15 16-25 2-23 4-29 9-19 8-20 11-14 10-10 8-13 12-9 10-13 18-10 19-7 19-4 20-1 9v18l2 18 4 17 8 20 9 17 9 14 8 13 12 21 14 26 16 33 11 28 8 25 5 25 4 38 4 10 5 6 2 1h74v-97h-2l-5 9-4 3h-9l-17-3-9-6-3-4v-2l3 5 8 6 7 2 13 2h6l5-4 7-12v-25l-2-1h-20l-9-2-7-5-3-4-7 1-3 2-1 9v3l-9 1-5-2h-5v-2l8 3h8l2-2 1-10 3-2-1-4-5-3h-2v-2l6 3 4 5 7-2-1-3-10-7-2-2-1-5h-4l1 5h-3l1-3-7-8-5 1-14 12-3 4 4 5 18 5 2 3h-2l-1-3-8-2h-6l1 8 10 14 9 6 17 8 8 8 5 2 9 1h3-9l-9-3-7-7-24-12-7-8-7-12-1-7-4-2-1-6 5-5 11-9 3-3-5-6-1-2v-7l5-10 3-2-6 9-1 2v9l12 12 3 2h9l8-4 2-4-1-3h2v5l6 7 4 5 5 1-6-1-8-10-6 2-9 4 2 5 11 8 9-1-7 3-1 4 5 5 9 4 18 1 6-1 1-6-2-1h-7l-9-5-7 1v-2l10 2 8 4 6-1 1-1v-7l-2 3-6 1-1-4v4h-2l-1-4-6-4h2v-2h-4v-2h5v-1h-5v-2h4v-2h-4v-2h5l-4-2-1-2h5l-1-2h-4v-2h5l-4-3 3-2h-4v-2l4-1-3-1v-6l8-5 1-2 2 3v-3h3l1 3h4v-3h2v3h2v-3h2v3h2v-16l-1-2h-23l23-2 1-14v-18l-4-2h-10l-9 2-2 1 7-3 17-1 1-3-1-14-1-13-10-6-4 1v-1h6l8 4 1-2v-14l-4-4-7-2h-9l-11 4-11 3-20 10-4 5-3 3 6-8 16-8 9-4 13-3 3-2h14l7 3 2 3v32l1 29v41l2 1 1-18 4-1 13 1h-12l-3 1v17h1v-15l3 1v14h1v-12h2v12h2v-10h19l10-8-1-4 3 3-10 9-2 1h-17v9l2-3v-3h16l8-6v1l-6 5-17 1 2 2h16l4-2-3 2-5 1h-9v2h2l1 3h4v8l-3 1h15l9-7 14-11 4-3 16-1 6-4-5 4-15 1-6 4-10 8-11 9-2 1-17 1v1l16 1 6-3 4-4 5 1 7 6h2l-1 2-9-8-4 1-7 5-4 1h-14v2h19v2l5-1 12 10 5-2 11-10-2-4-11-9 5-5 2-1h22l-23 1-4 3v3l13 10v2l-11 9-5 4-4-2-10-8-4 2 4 4 11 8 5 4-2 4-8 7 5 5 4 2v2l-4-2-7-7 10-8-1-4-14-11-4-1 2 4 13 10-5 5-6 5 5 6 8 6h11l-5-5-7-6v-2l8-6 2-4-3-3 1-4 9-7 11-9-2-4-11-1 1-7 1-1h8l1 1v7l4 4-15 13-7 5v3l4 3v2l-10 8 2 4 11 9-10 1-7-2-11-9 2-4 8-7-4-5-10-7h-18v2l17 1 9 7-2 4-15 12h-2l16-12 1-4-7-6-2-1h-11l-4 2 14 1-15 1v2l15 1-5 6-12 9 2 4 8 7 5-2 3-3 5 1 13 10 11 1 7-1v2l-18-1-11-8-4-3-4 1-5 4-4-2-10-8 5-5 11-9 2-3h-14l-2 2v5l4-2 3-2-5 5-3 2-2-8h-1v26l4-2h2l-5 4-3 1v-24l-1-5h-1l-1 5v24l2 3 6-1 6-5 4 2 13 11-1 3-8 6 2 4 8-6 5-4v-3l-10-8-2-3 5-3 11 9 4 3h9v2l-9-1-10-8-6-4-2 1 1 4 11 9v2l-10 8-5 3-5-5 4-2 7-5-6-7-9-7-5 3-5 4-4-2-1-1-1-30h-1l-1 11v17l2 6 5 4 5-2 4-4 5 1 4 4h2l-3 3-1-4-4-3-4 1-6 5-5-2-4-2 1 4 6 5 5-1 6-5-5 5-3 2-4-1-5-3 1 5 10 9 6 4 1 2-14-11-4-3v97h72l6-4 5-8 3-23 3-26 6-26 9-26 12-28 9-19 10-19 14-25 13-21 12-19 8-16 7-20 3-14 2-23-1-18-3-18-2-1-7-21-8-16-10-16-11-13-7-8-8-7-12-10-15-10-19-11-25-10-28-8-19-3-26-2zm208 133 1 2zm-181 168v2h2v-2zm7 12m0 11v2h19v-2zm5 4-5 1v1h17v-1zm-46 18m-110 65 1 2z"/>
<path transform="translate(1917,582)" d="m0 0h26l10 19 24 48 1-67h31v155h-26l-5-8-29-58-1 1-1 65h-30z"/>
<path transform="translate(1258,582)" d="m0 0h53l13 4 10 7 8 9 6 11 4 10 3 14 1 7v31l-3 17-4 12-6 12-11 12-10 6-10 3-32 1h-21l-1-1zm32 41v73h17l6-3 7-8 4-13 1-15-2-14-4-10-6-7-7-3z"/>
<path transform="translate(958,579)" d="m0 0h17l11 4 9 7 9 10 8 16 4 13 3 20v22l-3 19-5 16-7 13-9 10-7 6-9 4-4 1h-18l-10-4-8-6-8-8-8-14-5-13-4-22v-27l3-18 5-15 7-13 11-12 9-6zm6 42-8 4-6 9-4 14-1 13 2 15 4 11 6 8 6 3h7l9-6 5-10 3-12v-21l-4-15-6-9-8-4z"/>
<path transform="translate(1846,579)" d="m0 0h16l11 4 9 6 9 10 8 15 5 16 2 12 1 21-2 21-4 16-5 12-9 13-7 7-8 5-9 3h-18l-10-4-6-4-8-7-9-14-6-15-3-14-1-7v-31l4-20 6-16 7-11 11-11 12-6zm5 42-7 4-6 9-4 12-1 16 2 15 4 11 7 8 5 2 9-1 8-7 5-12 2-10v-16l-3-14-5-10-7-6z"/>
<path transform="translate(1030,582)" d="m0 0h51l10 3 9 6 7 8 5 10 4 14 1 8v20l-3 16-5 12-7 9-1 3 18 45v1h-34l-11-26-5-12h-7l-1 38h-31zm34 40-3 1v35l1 1h11l6-2 4-4 2-6v-13l-3-7-5-4z"/>
<path transform="translate(1367,582)" d="m0 0h31l1 94 3 14 3 5 4 2h6l4-2 4-8 2-12 1-93h31v96l-2 17-4 15-7 14-8 9-12 6-3 1h-19l-12-5-10-10-6-11-4-11-3-15-1-11v-94z"/>
<path transform="translate(1167,582)" d="m0 0h75l1 1-1 39h-44v18h39v37h-39v21l2-1h33l11 1 1 1v38l-77 1-1-1z"/>
<path transform="translate(1598,582)" d="m0 0h31l3 8 21 81 17 64v2h-33l-6-24v-3h-35l-4 20-2 7h-32l1-8 22-84 16-61zm15 54-8 33v3h17l-4-20-4-16z"/>
<path transform="translate(1511,579)" d="m0 0h17l11 4 8 6 7 7 7 12-1 5-16 23-3 3-8-12-6-4-9-1-8 4-6 10-3 10-1 16 2 15 4 11 5 6 6 3h8l8-5 6-9 3-3 19 28-1 5-6 10-7 8-10 6-8 3h-19l-12-5-12-11-7-11-5-11-5-19-1-8v-31l3-17 5-15 7-13 11-12 8-5z"/>
<path transform="translate(832,582)" d="m0 0h76v40h-44v26h38l1 39-1 1h-38v49h-32z"/>
<path transform="translate(1663,582)" d="m0 0h85l1 1v40h-27v113l-1 1h-31v-114h-27z"/>
<path transform="translate(447,670)" d="m0 0h207l9 4 4 7-1 7-4 5-9 3h-205l-8-3-5-6-1-5 3-6 5-4z"/>
<path transform="translate(448,732)" d="m0 0h208l8 4 4 6-1 8-8 7-5 1h-205l-8-4-4-5v-8l6-7z"/>
<path transform="translate(448,701)" d="m0 0h208l8 5 3 6-1 6-4 6-9 3h-203l-8-3-4-5-1-2v-7l6-7z"/>
<path transform="translate(1758,582)" d="m0 0h31v155h-31l-1-1v-153z"/>
<path transform="translate(481,763)" d="m0 0h141l7 3 5 6v8l-4 5-6 3-6 1h-135l-8-3-6-7v-6l4-6z"/>
<path transform="translate(512,791)" d="m0 0h77l8 4 4 5v9l-6 7-6 2h-77l-8-4-4-5v-9l5-6z"/>
<path transform="translate(1222,766)" d="m0 0h24v13l-7 1h-11l-1 12h13l6 1v40h-23l-1-1v-12l1-1h18v-13h-19z"/>
<path transform="translate(1790,766)" d="m0 0h24v40h-8l8 27h-6l-4-9-5-16v-2h-4v27h-5zm5 14v12l4 1h9l1-1v-12z"/>
<path transform="translate(1364,766)" d="m0 0h24v40h-8l8 27h-6l-3-6-6-20-4-1v27h-5zm5 14v12l3 1h10l1-1v-12z"/>
<path transform="translate(1694,766)" d="m0 0h24v13l-7 1h-11l-1 12h10l5 1v12l-1 1h-14v13h19v14h-24z"/>
<path transform="translate(1505,766)" d="m0 0h24v13l-6 1h-13v12h14v14h-14v13h19v14h-24z"/>
<path transform="translate(1979,766)" d="m0 0h24v13l-14 1-5-1v40h14l-1-12-4-1v-14l10 1v40h-24z"/>
<path transform="translate(1316,766)" d="m0 0h20l4 11v44l-4 11-1 1h-19zm14 13-9 1v39h12l2-5v-29l-2-5z"/>
<path transform="translate(1553,766)" d="m0 0h5l3 8 10 33 1-41h5v67h-5l-3-7-10-32-1 39h-5z"/>
<path transform="translate(1931,766)" d="m0 0h5l3 7 10 34 1-41h5v67h-5l-8-24-5-16-1 40h-5z"/>
<path transform="translate(1836,766)" d="m0 0h5l7 22 6 20 1-42h5v67h-5l-4-10-9-29-1 39h-5z"/>
<path transform="translate(890,766)" d="m0 0h5l3 7 10 34 1-41h5v67h-5l-8-24-5-16-1 40h-5z"/>
<path transform="translate(532,356)" d="m0 0 4 1-1 5-19 10-1 9 8-4 5-1h7l1 2-11 1-7 3-2 8-6 9 10-3h12l4-4 1-2h2l-2 5-6 4h-14l-10 4-5 4-2 3v8l5 10-1 5v3l9-1 7-6-1-4-4-4h-8l1-3 11 1 7-3 8 1 6 1v2h-6l-2-1h-8l-4 1 3 6v4l-7 6-10 3v11l-3 3-7 1 1-2 6-2v-12l-4-3-6-2h-7l-9 6-4 1 3-3v-7l-2-2h-11l-8 3-4 16-2 7v10h-2l-1-2v-7l3-11 2-11 3-10 5-7 5-10 4-9 4-11 8-7 9-7 5-2v2l-9 6-10 8-4 11-4 9-3 5 1 1 14-14 6-2 2-9 2-2 3 1-2 2-3 9-9 5-15 15-5 4-3 7 10-3h7l5 2 2 4v3l6-3h10l7 2-1-8-5-10 2-6 6-7 3-2-2-6-6-8-2-5-7-1 1-2h6l4 5 3 6 4 5 3-1 3-5-1-8-6-2-8-9 3-1 5 7 5 3 1-6 12-9-4-5 4 1 3 3 5-2z"/>
<path transform="translate(1175,766)" d="m0 0h23l1 1v12l-14 1-5-1v40h18l1 4v9l-1 1h-23z"/>
<path transform="translate(947,766)" d="m0 0h6l9 65v2h-13v-13l5-1-4-26-4 25-2 15h-6l1-12 7-50z"/>
<path transform="translate(1457,766)" d="m0 0h7l5 39 2-10 2-14-4-2v-13h13l-9 63-1 4h-5l-3-17z"/>
<path transform="translate(853,766)" d="m0 0h6l9 63v4h-12v-14h4l-3-21v-7h-2v8l-4 30-1 4h-6l2-17z"/>
<path transform="translate(1751,766)" d="m0 0h6l9 64v3h-12v-14h4l-4-28-6 42h-6l2-18z"/>
<path transform="translate(986,766)" d="m0 0h5v53h13v-13h5v27h-23z"/>
<path transform="translate(1647,766)" d="m0 0h5v53h13v-12l5-1v27h-23z"/>
<path transform="translate(1033,766)" d="m0 0h7l5 20 5-19 1-1h6l-2 12-6 25-1 30h-5l-1-25-6-28z"/>
<path transform="translate(1079,766)" d="m0 0h24v13h-9v54h-5l-1-53h-8l-1-1z"/>
<path transform="translate(553,407)" d="m0 0h19v1h-17l1 2h15l10 8 7 6 5-1-4 4-5-3-11-10-4-2h-7l-4 1v20l20 1 10 8-4 5-3 2h-9l3-1 1-2v2l7-3v-4l-5-4-23-1v2h21l6 4v2l-5 2 1-4-3-2-23-1v-30z" fill="#0B0B0B"/>
<path transform="translate(1893,766)" d="m0 0h5v67h-5z"/>
<path transform="translate(1421,766)" d="m0 0h5v67h-5z"/>
<path transform="translate(1136,766)" d="m0 0h5v67l-5-1z"/>
<path transform="translate(562,384)" d="m0 0h14l3 3v10l-2 2h-16l-2-2v-11z"/>
<path transform="translate(651,451)" d="m0 0h2v42l-14 12-8 6 5 5h-3l-5-5 15-13 7-5v-38l-1 21-6 7-11 9-2 2-1 11h-3l1-11 5-5 9-8 4-3 1-6v-10l1-7z"/>
<path transform="translate(460,435)" d="m0 0h2v6l3 4 14-1 5 1 2-5 4-2-2 4-3 5-1 8 3 9 3 2 13 1 16 8-3 1-8-4h-10l-4 6-1 3h-2l2-6 4-5 3-1h-8l-5-2-5-8-1-8 1-5-13 1-6 2-2 5-5 6v-3l7-11-4-5v-5z"/>
<path transform="translate(594,526)" d="m0 0 6 4 10 8 9 1v2h-9l-10-8-6-4-1 3 11 9v4l-10 8-5 3-5-4v-2l10-7-5-6-9-7-3-1 4-2 11 10 5 4-2 4-7 5 1 3 12-9 1-3-4-2-9-8z"/>
<path transform="translate(459,492)" d="m0 0v3l-5 6 5 5 16 4 2 4h-2l-1-2-14-3 3 9 6 9 4 5 15 8 10 5 7 7 5 2 9 1 3-1v3h-9l-9-3-7-7-24-12-8-9-7-12v-7l-5-2-1-6 5-5z"/>
<path transform="translate(563,413)" d="m0 0 7 2 8 7h-3l-7-6-6-1v15l1-1v-11h5v12h14l8 7h-3l-5-4-22-1-1-1v-17z" fill="currentColor"/>
<path transform="translate(566,367)" d="m0 0h3v2l-5 3-9 7-1 3 3-1 1 5-1 9v3l1 4h21l5 5-6-3-21 1-4 1-1-1v-26l8-7z" fill="currentColor"/>
<path transform="translate(493,370)" d="m0 0 1 2-9 6-10 8-4 11-4 9-3 5 1 1 14-14 6-2 2-9 2-2 3 1-2 2-3 9-9 5-15 15-5 4-2-1 3-4 5-10 4-9 4-11 8-7 9-7z"/>
<path transform="translate(594,498)" d="m0 0 3 1-1 4-8 7-8 6 3 4 5-1 5-5 5 2 9 8 5 3h19l4-4-4-2-9-8h3l12 10-2 4-3 2h-22l-15-12-4 2-6 5-8-6 2-4 11-9 4-3z"/>
<path transform="translate(532,356)" d="m0 0 4 1-1 5-19 10-1 9 8-4 5-1h7l1 2-11 1-7 3-2 8h-3l1-6-1-4-6-2-8-9 3-1 5 7 5 3 1-6 12-9-4-5 4 1 3 3 5-2z"/>
<path transform="translate(549,403)" d="m0 0h1l1 6-1 37-2-1v-2l-23 1-2-2 12-1h13v-32l-3-1h-10l-9 2-5 3 1-3 5-3 4-1h17z" fill="currentColor"/>
<path transform="translate(573,378)" d="m0 0 4 2 5 4 1 13 5 6 14 11 8 7v2l-13 10-3 1 3 5-4-2v-4l13-10-2-4-17-14-6-5-1-13-7-8z"/>
<path transform="translate(593,359)" d="m0 0 12 1 14 12-1 3-5 4 17 14v13l-5-3-8-7h3l7 6v-9l-10-8-7-6 5-5v-3l-10-8-2-1h-11z"/>
<path transform="translate(584,375)" d="m0 0 8 6 8 3 2 3-1 5-4 2-6-1-2-2v-5l2-3-7-6z"/>
<path transform="translate(566,352)" d="m0 0h8l6 3 13 11 8 6 6-3v2l-4 3-5-1-10-9-12-9h-12l-7 5v10h3l-5 4h-1v-14l7-6z"/>
<path transform="translate(623,459)" d="m0 0h22l1 2-24 1-3 2-1 3 4 2 10 8-1 3-11 9h-3l11-10-2-4-10-8v-3l5-4z" fill="currentColor"/>
<path transform="translate(643,485)" d="m0 0 4 1v2l3 1-5 5-7 5-6-3v-2l8-6z"/>
<path transform="translate(613,461)" d="m0 0 2 1-3 3 1 3 10 8-2 4-6 5-5-2-6-5-5 1h-3l6-5 9 6 4 2 5-5-12-11z"/>
<path transform="translate(489,385)" d="m0 0 3 1-2 2-3 9-9 5-15 15-5 4-2-1 5-7 4-1 14-14 6-2 2-9z" fill="currentColor"/>
<path transform="translate(497,518)" d="m0 0h2l6 7 6 4 6 1h13l2 1v2l-3-1h-17l-2-1h-7l-3 3-1 4 3 1-3 1-2-2 1-5 4-4h3l-4-5-4-3z"/>
<path transform="translate(488,404)" d="m0 0h6l-1 3-7 1-1 3 4 11v3h-3l-2-9-1-3-5 1v6h-2l-1-5 5-5z" fill="currentColor"/>
<path transform="translate(604,548)" d="m0 0 3 1-10 9-7 3-7-1-9-7 3-4 2 1v4l6 4h7l8-6z"/>
<path transform="translate(510,536)" d="m0 0 4 1 5 2 7-1h11v2h-10l-5 2-2 4 1 2h-12l-5-1v-2h13l1-4-8-3z"/>
<path transform="translate(449,464)" d="m0 0 12 3-2 2-8-1-1 2v11l1 10 3 2-1 2-4-2-1-2-1-19 2-7z"/>
<path transform="translate(549,403)" d="m0 0h1l1 6v10h-2l-1-10-3-1h-10l-9 2-5 3 1-3 5-3 4-1h17z" fill="currentColor"/>
<path transform="translate(510,445)" d="m0 0 9 2 4 4v2l5-3 11-1 1 2-13 2-5 4-3 7h-2l1-5 2-3v-5l-2-2-9-2z"/>
<path transform="translate(585,369)" d="m0 0 4 2 10 8 17 14 1 2-4-2-11-9-15-12-4 2h-3z"/>
<path transform="translate(594,526)" d="m0 0 6 4 10 8 9 1v2h-9l-10-8-6-4-3 2v-3z" fill="currentColor"/>
<path transform="translate(501,467)" d="m0 0 9 3 9 5-3 1-8-4h-10l-4 6-1 3h-2l2-6 4-5 3-1z"/>
<path transform="translate(580,379)" d="m0 0 4 2 3 4 1 13 5 3 6-5 2 1-8 7-6-4-2-2-1-13z"/>
<path transform="translate(605,397)" d="m0 0 5 3 8 7 10 8v3l-4 2 2-4-14-11-7-5-2-1z"/>
<path transform="translate(612,441)" d="m0 0 3 1-5 5-10 9-13 10-2-1 12-10 11-9z" fill="currentColor"/>
<path transform="translate(638,419)" d="m0 0h1l1 8-8 8-5 2 4-5 5-4v-5l-8 7-2-1 10-9z"/>
<path transform="translate(593,359)" d="m0 0 12 1 14 12-1 3-5 3-2-1 5-5-11-9-2-1h-11z" fill="currentColor"/>
<path transform="translate(460,435)" d="m0 0h2v6l3 4h5l-1 2-6 2-2 5-5 6v-3l7-11-4-5v-5z" fill="currentColor"/>
<path transform="translate(569,410)" d="m0 0 5 2 14 12 5-1-4 4-5-3-11-10-4-2z" fill="#040504"/>
<path transform="translate(601,400)" d="m0 0 2 1-3 4 9 8 6 4v2l-4-1-8-7-6-5 2-4z"/>
<path transform="translate(532,356)" d="m0 0 4 1-1 5-10 5-2-1 2-3-4-5 4 1 3 3 5-2z" fill="currentColor"/>
<path transform="translate(572,405)" d="m0 0h5l14 12 4 3-1 3-5-5-12-10-5-2z" fill="currentColor"/>
<path transform="translate(602,474)" d="m0 0 9 6 4 2 2-1-2 4-5-2-6-5-5 1h-3z" fill="currentColor"/>
<path transform="translate(566,358)" d="m0 0h7l9 7 1 3h-2l-5-5-4-3-7 1-5 4-3-1z"/>
<path transform="translate(651,444)" d="m0 0 2 2-12 10h-18v-1l17-1z"/>
<path transform="translate(473,454)" d="m0 0 2 2-3 1-2 5-2 4-1 9-2-1v-7l5-10z"/>
<path transform="translate(609,455)" d="m0 0 2 1-13 11-5 4-3-1 14-11z"/>
<path transform="translate(489,385)" d="m0 0 3 1-2 2-3 9-6 3-2-1 6-3 2-9z"/>
<path transform="translate(640,433)" d="m0 0 4 1 7 6-5 5h-3l4-4v-2l-6-4-4 2z"/>
<path transform="translate(624,430)" d="m0 0 2 1-3 3 1 3 6 4 5-2-4 4-4-1-7-6 2-4z"/>
<path transform="translate(572,408)" d="m0 0 5 2 10 8-1 3-7-7-7-5z" fill="currentColor"/>
<path transform="translate(598,434)" d="m0 0h2l5 5 3 2-1 3-4 3-2-1 4-5-4-2-3-3z"/>
<path transform="translate(589,411)" d="m0 0 4 2 9 8-2 4h-3l2-4-10-9z"/>
<path transform="translate(604,392)" d="m0 0 4 1 10 9h-3l-8-7h-5z"/>
<path transform="translate(563,413)" d="m0 0 7 2 8 7h-3l-7-6-6-1z"/>
<path transform="translate(612,428)" d="m0 0 2 1-5 5h-2l4 6-6-3 1-4z"/>
<path transform="translate(573,378)" d="m0 0 4 2 5 4v8l-2-1-1-6z" fill="currentColor"/>
<path transform="translate(635,444)" d="m0 0 2 1-3 3-16 1 1-2 13-1z"/>
<path transform="translate(567,362)" d="m0 0 4 1 4 4v2l-5 2 1-5-3-2-2-1z"/>
<path transform="translate(597,460)" d="m0 0 2 1-8 7-3 1 1-3z"/>
<path transform="translate(609,450)" d="m0 0 2 1-10 9-2-1z"/>
<path transform="translate(615,431)" d="m0 0 2 1-2 3 4 5-4-2-3-2 2-4z"/>
<path transform="translate(597,439)" d="m0 0 4 2v3l-4 3-2-1 3-3z" fill="currentColor"/>
<path transform="translate(628,411)" d="m0 0 4 2 4 4-4 2 1-3z"/>
<path transform="translate(618,403)" d="m0 0 4 2 6 5h-3l-7-6z"/>
<path transform="translate(642,509)" d="m0 0h2v2l-6 4-2-1z"/>
<path transform="translate(617,414)" d="m0 0 3 1 1 3-4 4-2-1 3-3z"/>
<path transform="translate(575,371)" d="m0 0 2 1-3 3-1 3h-2l-1-3z"/>
<path transform="translate(606,405)" d="m0 0 4 2 3 4-4-2-3-2z"/>
<path transform="translate(521,548)" d="m0 0h8v2l-8-1z"/>
<path transform="translate(584,428)" d="m0 0 6 2 2 1-3 2z"/>
<path transform="translate(619,440)" d="m0 0 3 1-4 5-2-1 3-4z"/>
<path transform="translate(616,449)" d="m0 0 2 1-4 4-2-1z"/>
<path transform="translate(598,448)" d="m0 0 2 1-4 4-2-1z"/>
<path transform="translate(578,423)" d="m0 0 4 2 2 3-4-2z"/>
<path transform="translate(564,364)" d="m0 0 2 1-4 4-2-1z"/>
<path transform="translate(640,440)" d="m0 0h2v2l-5 2z"/>
<path transform="translate(582,545)" d="m0 0 2 1-3 3-2-1z"/>
<path transform="translate(620,427)" d="m0 0 2 1-3 3-2-1z"/>
<path transform="translate(617,424)" d="m0 0 2 1-3 3-2-1z"/>
<path transform="translate(630,419)" d="m0 0 2 1-3 3-2-1z"/>
<path transform="translate(584,407)" d="m0 0 4 2 1 2-4-2z"/>
<path transform="translate(568,371)" d="m0 0 2 1-3 3-2-1z"/>
<path transform="translate(620,509)" d="m0 0h2v3h-2z"/>
<path transform="translate(617,458)" d="m0 0 2 1-4 2z"/>
<path transform="translate(614,446)" d="m0 0 2 1-4 2z"/>
<path transform="translate(572,441)" d="m0 0h2v3h-2z"/>
<path transform="translate(603,430)" d="m0 0 2 1-4 2z"/>
<path transform="translate(594,427)" d="m0 0 2 1-4 2z"/>
<path transform="translate(608,426)" d="m0 0 2 1-4 2z"/>
<path transform="translate(624,424)" d="m0 0 2 1-4 2z"/>
<path transform="translate(613,422)" d="m0 0 2 1-4 2z"/>
<path transform="translate(622,420)" d="m0 0 2 1-4 2z"/>
<path transform="translate(613,411)" d="m0 0 4 2h-3z"/>
<path transform="translate(559,378)" d="m0 0 2 1-4 2z"/>
<path transform="translate(577,376)" d="m0 0h2l1 3-3-1z"/>
<path transform="translate(563,375)" d="m0 0 2 1-4 2z"/>
<path transform="translate(579,368)" d="m0 0 2 1-4 2z"/>
<path transform="translate(620,456)" d="m0 0 3 1-4 1z"/>
<path transform="translate(427,576)" d="m0 0 1 4z"/>
<path transform="translate(623,507)" d="m0 0 2 1h-3z"/>
<path transform="translate(428,581)" d="m0 0"/>
<path transform="translate(328,364)" d="m0 0"/>
<path transform="translate(327,360)" d="m0 0"/>
<path transform="translate(752,300)" d="m0 0"/>
<path transform="translate(625,506)" d="m0 0"/>
<path transform="translate(593,497)" d="m0 0"/>
<path transform="translate(611,454)" d="m0 0"/>
<path transform="translate(593,453)" d="m0 0"/>
<path transform="translate(611,449)" d="m0 0"/>
<path transform="translate(600,447)" d="m0 0"/>
<path transform="translate(611,440)" d="m0 0"/>
<path transform="translate(635,438)" d="m0 0"/>
<path transform="translate(636,437)" d="m0 0"/>
<path transform="translate(600,433)" d="m0 0"/>
<path transform="translate(605,429)" d="m0 0"/>
<path transform="translate(596,426)" d="m0 0"/>
<path transform="translate(610,425)" d="m0 0"/>
<path transform="translate(626,423)" d="m0 0"/>
<path transform="translate(619,423)" d="m0 0"/>
<path transform="translate(601,395)" d="m0 0"/>
<path transform="translate(579,375)" d="m0 0"/>
<path transform="translate(326,357)" d="m0 0"/>
</svg>
